<?xml version="1.0" encoding="utf-8"?>
<!-- Generator: Adobe Illustrator 25.2.0, SVG Export Plug-In . SVG Version: 6.00 Build 0)  -->
<svg version="1.1" id="Capa_1" xmlns="http://www.w3.org/2000/svg" xmlns:xlink="http://www.w3.org/1999/xlink" x="0px" y="0px"
	 viewBox="0 0 261.1 260.9" style="enable-background:new 0 0 261.1 260.9;" xml:space="preserve">
<style type="text/css">
	.st0{fill:#FFF975;}
	.st1{fill:#0E0000;}
</style>
<g id="Capa_2_1_">
	<g id="Capa_1-2">
		<path d="M261.1,130.8C261.3,59.2,202.9,0.3,131.4,0C59.4-0.3,0.2,58.2,0,130.1s58.1,130.5,130,130.8
			c72,0.4,130.7-57.6,131.1-129.6C261.1,131.1,261.1,130.9,261.1,130.8z"/>
		<path class="st0" d="M261.1,130.8c-0.1,72-58.6,130.3-130.6,130.1c-0.2,0-0.3,0-0.5,0C58.1,260.6-0.2,202,0,130.1
			S59.4-0.3,131.4,0C202.9,0.3,261.3,59.2,261.1,130.8z M41.4,137.7c3,0.1,6,0.1,9-0.1c3.5-0.4,5.2-2.9,5.1-6.3s-1.9-5.7-5.6-5.7
			c-10-0.1-20-0.1-30,0c-3.6,0-5.5,2.2-5.7,5.7s1.6,5.7,5.1,6.3c1.7,0.3,3.3,0.3,5,0.1c3.6-0.5,5.1,1,5.4,4.5
			c0.4,3.8,1.1,7.6,2.1,11.3c11.1,45.7,40.4,79.7,90.4,83c24.1,1.6,46.8-2.7,66.7-17.3c24.4-17.9,36-43.4,42-72.1
			c1.8-8.5,1.5-8.6,10.1-9.5c3.9-0.4,6.2-2.3,6.1-6.4c-0.1-3.9-2.4-5.7-6.1-5.8c-9.7-0.1-19.3,0-29,0c-3.8,0-6,1.9-6.1,5.7
			c-0.1,4.1,2.1,6.2,6.1,6.4c2.4,0.1,4.9,0,7.4,0c-4.5,39.7-28.9,87-88.1,86.7c-23.8-0.1-45.2-6.4-61.9-24.1
			C52.9,183.1,45.2,161.8,41.4,137.7z M187,86.3c0-10.3-2.3-19.9-6.3-26.9c-6.5-11.4-17.4-11.8-23.4-0.1c-9.2,17.8-9.2,36.3,0,54.1
			c6.1,11.6,16.9,11.2,23.4-0.2C185.5,104.9,186.9,95.8,187,86.3z M110.4,86.1c-0.1-10.4-2.4-20-6.4-26.8
			c-6.6-11.2-17.2-11.5-23.1-0.1c-9.4,17.9-9.4,36.6,0,54.5c6,11.4,16.6,11,23.1-0.2C108.9,105,110.3,95.7,110.4,86.1z"/>
		<path class="st1" d="M41.4,137.7c3.8,24.1,11.5,45.4,27.9,62.7c16.8,17.7,38.2,24,61.9,24.1c59.1,0.3,83.6-47.1,88.1-86.7
			c-2.5,0-5,0.1-7.4,0c-3.9-0.2-6.2-2.3-6.1-6.4c0.1-3.8,2.3-5.7,6.1-5.7c9.7,0,19.3-0.1,29,0c3.7,0,6,1.9,6.1,5.8
			c0.1,4.1-2.2,6-6.1,6.4c-8.6,0.9-8.3,0.9-10.1,9.5c-5.9,28.7-17.6,54.2-42,72.1c-19.9,14.6-42.6,18.9-66.8,17.3
			c-50-3.3-79.3-37.3-90.4-83c-1-3.7-1.7-7.5-2.1-11.3c-0.4-3.6-1.9-5-5.4-4.5c-1.7,0.2-3.3,0.2-5-0.1c-3.5-0.6-5.2-2.9-5.1-6.3
			s2.1-5.7,5.7-5.7c10-0.1,20-0.1,30,0c3.7,0,5.5,2.3,5.6,5.7c0.2,3.4-1.6,5.9-5.1,6.3C47.3,137.8,44.4,137.8,41.4,137.7z"/>
		<path class="st1" d="M187,86.3c-0.1,9.4-1.5,18.6-6.3,26.9c-6.5,11.5-17.3,11.9-23.4,0.2c-9.3-17.8-9.2-36.3,0-54.1
			c6-11.7,16.9-11.3,23.4,0.1C184.7,66.4,187,76.1,187,86.3z"/>
		<path class="st1" d="M110.4,86.1c-0.1,9.6-1.5,18.9-6.4,27.3c-6.5,11.2-17.1,11.7-23.1,0.2c-9.4-17.9-9.4-36.6,0-54.5
			c6-11.5,16.5-11.1,23.1,0.1C108,66.1,110.3,75.7,110.4,86.1z"/>
	</g>
</g>
</svg>
