<svg xmlns="http://www.w3.org/2000/svg" viewBox="0 0 261.15 260.88"><defs><style>.cls-1{fill:#f4ce2c;}.cls-2{fill:#1c1c1c;}</style></defs><g id="Capa_2" data-name="Capa 2"><g id="Capa_1-2" data-name="Capa 1"><path d="M261.15,130.77C261.3,59.16,202.93.31,131.44,0,59.37-.31.22,58.23,0,130.11S58.1,260.63,130,260.88A130.38,130.38,0,0,0,261.15,130.77Z"/><path class="cls-1" d="M261.15,130.77A130.38,130.38,0,0,1,130,260.88C58.1,260.63-.22,202,0,130.11S59.37-.31,131.44,0C202.93.31,261.3,59.16,261.15,130.77ZM41.38,137.69a83.55,83.55,0,0,0,8.95-.06c3.53-.42,5.25-2.86,5.1-6.28s-1.94-5.72-5.62-5.74c-10-.07-20-.1-30,0-3.58,0-5.5,2.21-5.66,5.71s1.6,5.73,5.06,6.34a16.63,16.63,0,0,0,5,.11c3.57-.46,5.07,1,5.43,4.54a81.91,81.91,0,0,0,2.11,11.27c11.06,45.69,40.37,79.69,90.37,83,24.11,1.59,46.85-2.69,66.75-17.29,24.39-17.9,36-43.38,42-72.06,1.77-8.54,1.51-8.6,10.1-9.46,3.86-.39,6.23-2.26,6.1-6.4-.12-3.88-2.39-5.74-6.1-5.77-9.67-.06-19.33,0-29,0-3.78,0-6,1.92-6.12,5.74-.14,4.07,2.12,6.17,6.07,6.4,2.44.15,4.91,0,7.43,0-4.48,39.69-28.93,87-88.07,86.74-23.76-.11-45.15-6.36-61.94-24.1C52.91,183.08,45.16,161.8,41.38,137.69ZM187,86.35c0-10.27-2.28-19.92-6.29-26.89-6.54-11.38-17.41-11.75-23.41-.09-9.19,17.82-9.24,36.28,0,54.09,6.07,11.63,16.89,11.25,23.39-.23C185.46,104.91,186.92,95.78,187,86.35Zm-76.61-.25c-.06-10.36-2.37-20-6.42-26.85-6.61-11.15-17.15-11.54-23.12-.09-9.37,17.94-9.41,36.59,0,54.52,6,11.42,16.58,11,23.12-.23C108.92,105,110.28,95.69,110.39,86.1Z"/><path class="cls-2" d="M41.38,137.69c3.78,24.11,11.53,45.39,27.93,62.71,16.79,17.74,38.18,24,61.94,24.1,59.14.29,83.59-47.05,88.07-86.74-2.52,0-5,.12-7.43,0-3.95-.23-6.21-2.33-6.07-6.4.13-3.82,2.34-5.73,6.12-5.74,9.66,0,19.32-.06,29,0,3.71,0,6,1.89,6.1,5.77.13,4.14-2.24,6-6.1,6.4-8.59.86-8.33.92-10.1,9.46-5.94,28.68-17.58,54.16-42,72.06-19.9,14.6-42.64,18.88-66.75,17.29-50-3.31-79.31-37.31-90.37-83a81.91,81.91,0,0,1-2.11-11.27c-.36-3.59-1.86-5-5.43-4.54a16.63,16.63,0,0,1-5-.11c-3.46-.61-5.23-2.86-5.06-6.34s2.08-5.68,5.66-5.71c10-.09,20-.06,30,0,3.68,0,5.46,2.33,5.62,5.74s-1.57,5.86-5.1,6.28A83.55,83.55,0,0,1,41.38,137.69Z"/><path class="cls-2" d="M187,86.35c-.08,9.43-1.54,18.56-6.26,26.88-6.5,11.48-17.32,11.86-23.39.23-9.29-17.81-9.24-36.27,0-54.09,6-11.66,16.87-11.29,23.41.09C184.72,66.43,187,76.08,187,86.35Z"/><path class="cls-2" d="M110.39,86.1c-.11,9.59-1.47,18.91-6.39,27.35-6.54,11.22-17.1,11.65-23.12.23-9.44-17.93-9.4-36.58,0-54.52,6-11.45,16.51-11.06,23.12.09C108,66.07,110.33,75.74,110.39,86.1Z"/></g></g></svg>