<svg xmlns="http://www.w3.org/2000/svg" viewBox="0 0 124.16 115.88"><g id="Capa_2" data-name="Capa 2"><g id="Capa_1-2" data-name="Capa 1"><path d="M124.12,46.41a32.23,32.23,0,0,0-4-12.91,30,30,0,0,0-4-6.09,28.18,28.18,0,0,0-6.19-5c-3.64-2.31-8-4.63-13-4.36a24.4,24.4,0,0,0-9.79,3A29.69,29.69,0,0,0,77,5,21.38,21.38,0,0,0,64.87,0,19.08,19.08,0,0,0,52.51,4,30,30,0,0,0,43.58,14.4a19.74,19.74,0,0,0-2.06,12.18,33.7,33.7,0,0,0,.72,3.48c-1.09-1-2.19-2-3.34-3a33.51,33.51,0,0,0-12.39-6.47c-7.88-2.17-18.63-.2-23.92,7.74C-2.48,36,.74,45.18,5,50.78A39.59,39.59,0,0,0,21.49,63.34,25.92,25.92,0,0,0,19,65.76a19.6,19.6,0,0,0-4.08,6.7,16.37,16.37,0,0,0-.44,7.75A34.26,34.26,0,0,0,18.85,92.4c4.56,7.77,11.73,13.43,19.68,15.52a24.5,24.5,0,0,0,19.54-3A32.87,32.87,0,0,0,77.2,115.49a33.49,33.49,0,0,0,5.07.39,30,30,0,0,0,19.53-6.94A28.64,28.64,0,0,0,111.38,86a26,26,0,0,0-3.65-12.21,28.64,28.64,0,0,0-4.21-5.27,26.71,26.71,0,0,0,4.61-.94A23.72,23.72,0,0,0,120,59.77,19.71,19.71,0,0,0,124.12,46.41ZM73.6,31.15a24.61,24.61,0,0,0-4.42,9.51,16.81,16.81,0,0,0-12.24,3.11l-.24.17-.38-.57c-.91-1.41-1.82-2.95-2.68-4.57a51.7,51.7,0,0,1-4.23-10.19c-.83-3-1.22-5.48-.44-8.18a20.29,20.29,0,0,1,5.19-8.28c2.63-2.65,5.3-4.24,8-4.71a12,12,0,0,1,8.08,1.63c5.32,3,9.46,9.43,10.29,15.9A28.49,28.49,0,0,0,73.6,31.15ZM50,53.7a12.43,12.43,0,0,0-3.73-.46,30.79,30.79,0,0,0-9.45,1.94,60.33,60.33,0,0,0-7.6,3.16A35.69,35.69,0,0,1,18.4,53.57c-5.7-3.9-9.65-8.87-10.83-13.63a9.67,9.67,0,0,1,.85-7.16A11.21,11.21,0,0,1,15,27.88c6-1.89,13-.24,18.8,4.4A78.45,78.45,0,0,1,40.81,39L51.5,49.89A17.62,17.62,0,0,0,50,53.7ZM30,66.46l.5-.29a50.34,50.34,0,0,0,8.63,1.36c3.17.2,6.54.25,9.57-.86,1.06-.39,1.9-1.33,2.94-.85.37.17,1.67,1.48,1.42,2-.47.88-.87,1.77-1.26,2.63l-.45,1A31.11,31.11,0,0,0,49,77.88a27.19,27.19,0,0,0,1,12.77,35.06,35.06,0,0,0,3.88,8.46A16.73,16.73,0,0,1,50,100.83c-5.45,1.65-11.93.22-17.32-3.81a28.35,28.35,0,0,1-10.54-16.4,12.62,12.62,0,0,1-.31-5.09A10.12,10.12,0,0,1,24.33,71,21.6,21.6,0,0,1,30,66.46Zm26.19,12c.16-.47.33-.93.5-1.4s.32-.83.63-1.58c.49-1.19,1-2.36,1.56-3.51a14.93,14.93,0,0,0,3.1.66A39.46,39.46,0,0,1,63,80.53a20,20,0,0,1-1.36,8.84,21.24,21.24,0,0,1-2.6,4.68,27.1,27.1,0,0,1-1.64-3.51,24.11,24.11,0,0,1-1.66-9.8A7.75,7.75,0,0,1,56.14,78.5Zm14.18,1.93a53.53,53.53,0,0,0-1-8.3,25.27,25.27,0,0,0,2.57-.76c2.63-.94,7.21-3.07,9.9-7.1,1.74.74,3.41,1.39,4.94,1.91,5,2.22,11.15,5.49,14.71,11.22a20.81,20.81,0,0,1-12.26,30.26,24.8,24.8,0,0,1-18.84-2.16,29.38,29.38,0,0,1-6.77-5.36A27.82,27.82,0,0,0,70.32,80.43Zm9.54-33.59c5.52-4.41,7.77-11.83,8-17.9a27.94,27.94,0,0,1,7.3-3.33c2.56-.64,5.06-.2,8.11,1.4s6.75,3.85,9,7.54a31.62,31.62,0,0,1,4.17,9.69,13.49,13.49,0,0,1-.91,9.1A15,15,0,0,1,108,59.9c-5.21,2.21-11.37,2-18.76-.51-1.79-.79-3.61-1.53-5.44-2.24A16.7,16.7,0,0,0,79.86,46.84Z"/></g></g></svg>