<svg xmlns="http://www.w3.org/2000/svg" viewBox="0 0 45.14 42.13"><defs><style>.cls-1{fill:#000000;}</style></defs><g id="Capa_2" data-name="Capa 2"><g id="Capa_1-2" data-name="Capa 1"><path class="cls-1" d="M45.12,16.87a11.61,11.61,0,0,0-1.46-4.69A11.13,11.13,0,0,0,42.2,10,10,10,0,0,0,40,8.14a8.11,8.11,0,0,0-4.72-1.59,8.85,8.85,0,0,0-3.56,1.1A10.83,10.83,0,0,0,28,1.8,7.83,7.83,0,0,0,23.58,0a6.94,6.94,0,0,0-4.49,1.44,11,11,0,0,0-3.25,3.79,7.22,7.22,0,0,0-.75,4.42,12.56,12.56,0,0,0,.27,1.27c-.4-.38-.8-.74-1.22-1.08A12.08,12.08,0,0,0,9.64,7.5c-2.87-.79-6.77-.08-8.7,2.81s-.67,6.11.89,8.15a14.39,14.39,0,0,0,6,4.57,9.4,9.4,0,0,0-.9.88,7.07,7.07,0,0,0-1.48,2.43,6,6,0,0,0-.16,2.82,12.55,12.55,0,0,0,1.58,4.43A12.08,12.08,0,0,0,14,39.23a8.85,8.85,0,0,0,7.1-1.11,12,12,0,0,0,7,3.87,12.67,12.67,0,0,0,1.84.14A10.88,10.88,0,0,0,37,39.6a10.41,10.41,0,0,0,3.48-8.34,9.31,9.31,0,0,0-1.33-4.43,9.78,9.78,0,0,0-1.53-1.92,10.2,10.2,0,0,0,1.68-.34,8.63,8.63,0,0,0,4.32-2.84A7.09,7.09,0,0,0,45.12,16.87ZM26.76,11.33a8.87,8.87,0,0,0-1.61,3.45,6.11,6.11,0,0,0-4.45,1.13l-.09.06-.13-.2c-.34-.52-.67-1.08-1-1.67A18.61,18.61,0,0,1,18,10.4a5.24,5.24,0,0,1-.16-3,7.35,7.35,0,0,1,1.89-3A5.6,5.6,0,0,1,22.58,2.7a4.43,4.43,0,0,1,2.94.6,8.11,8.11,0,0,1,3.74,5.78A10.13,10.13,0,0,0,26.76,11.33Zm-8.6,8.19a5,5,0,0,0-1.36-.17,11.16,11.16,0,0,0-3.43.71,22.18,22.18,0,0,0-2.77,1.15,12.71,12.71,0,0,1-3.91-1.74,9.21,9.21,0,0,1-3.94-4.95,3.55,3.55,0,0,1,.31-2.61,4.1,4.1,0,0,1,2.37-1.77,7.48,7.48,0,0,1,6.84,1.59,29.68,29.68,0,0,1,2.57,2.45l3.88,4A6.34,6.34,0,0,0,18.16,19.52Zm-7.27,4.64.18-.1a18.48,18.48,0,0,0,3.14.49,8.7,8.7,0,0,0,3.48-.31c.38-.15.69-.49,1.06-.31.14.06.61.54.52.71s-.32.65-.46,1l-.16.36a11.61,11.61,0,0,0-.86,2.35A10,10,0,0,0,18.16,33,13.15,13.15,0,0,0,19.57,36a6.19,6.19,0,0,1-1.39.63,7.19,7.19,0,0,1-6.29-1.39,10.35,10.35,0,0,1-3.84-6,4.93,4.93,0,0,1-.11-1.85,3.64,3.64,0,0,1,.91-1.66A7.66,7.66,0,0,1,10.89,24.16Zm9.52,4.38.18-.51c.08-.23.12-.3.23-.58s.36-.85.57-1.27a5.55,5.55,0,0,0,1.12.24,13.78,13.78,0,0,1,.4,2.86,7.31,7.31,0,0,1-.49,3.21,7.47,7.47,0,0,1-1,1.7,11.38,11.38,0,0,1-.6-1.28,8.79,8.79,0,0,1-.6-3.56A3.1,3.1,0,0,1,20.41,28.54Zm5.15.7a18.34,18.34,0,0,0-.38-3c.32-.07.63-.17.94-.27a7.43,7.43,0,0,0,3.6-2.59c.63.27,1.24.51,1.79.7a11.6,11.6,0,0,1,5.35,4.08,7.57,7.57,0,0,1-4.46,11,9,9,0,0,1-6.85-.79,10.78,10.78,0,0,1-2.46-2A10,10,0,0,0,25.56,29.24ZM29,17A8.91,8.91,0,0,0,32,10.52a10.32,10.32,0,0,1,2.65-1.21,4,4,0,0,1,3,.51,8,8,0,0,1,3.27,2.74,11.27,11.27,0,0,1,1.51,3.52A4.87,4.87,0,0,1,42,19.39a5.45,5.45,0,0,1-2.75,2.39c-1.89.8-4.13.73-6.81-.19-.66-.29-1.32-.55-2-.82A6.05,6.05,0,0,0,29,17Z"/></g></g></svg>
