<svg xmlns="http://www.w3.org/2000/svg" viewBox="0 0 445.97 83.92"><g id="Capa_2" data-name="Capa 2"><g id="Capa_1-2" data-name="Capa 1"><path d="M35.06,24.15a10.18,10.18,0,0,0-4-5.63q-3.57-2.23-9.43.36-7.69-2.6-13.28-.31T.81,27.43q-1.92,6.57.7,15.78Q-1.11,52.44.81,59t7.52,8.86q5.58,2.28,13.28-.31,5.85,2.58,9.43.35a10.15,10.15,0,0,0,4-5.62V66h7.87V1.62H35.06Zm-1,30.38q-1.4,4.69-4.58,6.4t-7.91-.27a8.68,8.68,0,0,1-8.26.44A10.08,10.08,0,0,1,8,54.22a16.75,16.75,0,0,1,1-11,16.71,16.71,0,0,1-1-11,10.12,10.12,0,0,1,5.37-6.89,8.71,8.71,0,0,1,8.26.45q4.71-2,7.91-.27t4.58,6.4a26.32,26.32,0,0,1,1,5.19V49.34A26.32,26.32,0,0,1,34.1,54.53Z"/><path d="M87.66,17.67Q82.5,16.2,75.78,18.79q-6.9-2.59-12.23-1.07A9.9,9.9,0,0,0,56.47,24q-1.76,4.78,1.13,11h7.52q-2.63-3.21-1.44-6.44a6.59,6.59,0,0,1,4.8-4.2,9,9,0,0,1,7.3,1.25,8,8,0,0,1,6.9-1.34,6.33,6.33,0,0,1,4.59,4.16c.73,2.12.24,4.22-1.44,6.31h-.35v1.75a5.62,5.62,0,0,1-1.18,3.08,5.8,5.8,0,0,1-4.63,1.87A25.59,25.59,0,0,1,71,39.64v-.36Q65,36.5,60.36,37.8a8.29,8.29,0,0,0-6.08,5.64q-1.39,4.34,1.49,9.79-2.88,5.55-1.49,10a8.39,8.39,0,0,0,6,5.82q4.63,1.34,10.4-1.52c4,1.72,7.21,2,9.74.84s4.06-3.37,5-6.81V66h7.86V34.81q2.79-6.18,1.14-10.92A9.54,9.54,0,0,0,87.66,17.67ZM84.21,56a8,8,0,0,1-4.94,5.09q-3.4,1.17-8.56-.89A5.81,5.81,0,0,1,65.12,62a4.68,4.68,0,0,1-3.71-3.53c-.5-1.88.13-3.63,1.87-5.24q-2.61-2.32-1.83-5.1a4.79,4.79,0,0,1,3.8-3.49A6.13,6.13,0,0,1,71,46.35v.35q5.85,2.41,9.7,1.93a6,6,0,0,0,4.81-3.13v3.88A20.9,20.9,0,0,1,84.21,56Z"/><rect x="106.62" y="20.4" width="7.86" height="45.62"/><rect x="105.31" y="3.05" width="10.48" height="9.93"/><rect x="127.94" y="1.62" width="7.86" height="64.41"/><polygon points="176.69 20.4 164.07 54.88 151.79 20.4 143.75 20.4 160 66.02 153.45 83.92 161.49 83.92 168.04 66.03 168.04 66.03 168.04 66.02 184.73 20.4 176.69 20.4"/><path d="M240.43,35.61a11,11,0,0,0-6.53-6.21A6.81,6.81,0,0,0,237.55,26c.84-2,.51-4.5-1-7.43q2.9-6.52,1.1-11.45A10.21,10.21,0,0,0,230.38.59q-5.46-1.56-12.62,1H194.08V66h26.3q7.34,2.6,12.89.85a10.87,10.87,0,0,0,7.42-7q1.89-5.28-1-12.43Q242.48,40.63,240.43,35.61ZM201.94,8.86h15.82V8.51a9.13,9.13,0,0,1,7.6-1.21,7.2,7.2,0,0,1,5,4.43c.85,2.2.4,4.47-1.35,6.79q2,3.23,1.18,5.95A6.32,6.32,0,0,1,227,28.2a30,30,0,0,0-8,1.2l-.48,0h-16.6Zm31.46,46.3a7.87,7.87,0,0,1-5.16,5,9.26,9.26,0,0,1-7.86-1v-.36H201.94V36.59h16.6v-.35a12.78,12.78,0,0,1,8.83-.72,8.5,8.5,0,0,1,5.72,4.7c1,2.29.71,4.69-.91,7.2Q234.7,51.44,233.4,55.16Z"/><rect x="253.41" y="1.62" width="7.86" height="64.41"/><path d="M317.27,27.34a12.93,12.93,0,0,0-7.9-8.86q-5.89-2.28-13.94.31-8-2.59-13.93-.31a12.93,12.93,0,0,0-7.91,8.86q-2,6.57.61,15.87-2.62,9.32-.61,15.88A13,13,0,0,0,281.5,68q5.89,2.28,13.93-.31,8,2.58,13.94.31a13,13,0,0,0,7.9-8.86q2-6.57-.61-15.88Q319.29,33.91,317.27,27.34Zm-7.2,27a10.23,10.23,0,0,1-5.73,6.84,10.34,10.34,0,0,1-8.91-.4,10.34,10.34,0,0,1-8.91.4,10.19,10.19,0,0,1-5.72-6.84q-1.53-5,.91-11.1-2.44-6.08-.91-11.09a10.19,10.19,0,0,1,5.72-6.84,10.34,10.34,0,0,1,8.91.4,10.34,10.34,0,0,1,8.91-.4,10.23,10.23,0,0,1,5.73,6.84q1.53,5-.92,11.09Q311.59,49.3,310.07,54.31Z"/><path d="M370.48,27.34a12.93,12.93,0,0,0-7.9-8.86q-5.91-2.28-13.94.31-8-2.59-13.94-.31a12.93,12.93,0,0,0-7.9,8.86q-2,6.57.61,15.87-2.62,9.32-.61,15.88A13,13,0,0,0,334.7,68q5.91,2.28,13.94-.31,8,2.58,13.94.31a13,13,0,0,0,7.9-8.86q2-6.57-.61-15.88Q372.5,33.91,370.48,27.34Zm-7.2,27a10.23,10.23,0,0,1-5.73,6.84,10.34,10.34,0,0,1-8.91-.4,10.34,10.34,0,0,1-8.91.4A10.19,10.19,0,0,1,334,54.31q-1.53-5,.91-11.1-2.44-6.08-.91-11.09a10.19,10.19,0,0,1,5.72-6.84,10.34,10.34,0,0,1,8.91.4,10.34,10.34,0,0,1,8.91-.4,10.23,10.23,0,0,1,5.73,6.84q1.52,5-.92,11.09Q364.81,49.3,363.28,54.31Z"/><path d="M445.49,23.71a8.84,8.84,0,0,0-6.11-6.21Q434.7,16,428.85,18.88q-5.42-2.77-8.61-.36a8.86,8.86,0,0,0-2.53,3.3,8.73,8.73,0,0,0-5.33-4.32Q407.7,16,401.85,18.88q-5.42-2.77-8.61-.36a10.11,10.11,0,0,0-3.19,4.9v-3h-7.86V66h7.86V37.66a34.23,34.23,0,0,1,.79-5c.82-3.34,2.15-5.62,4-6.85s4.19-1.11,7,.32a5.66,5.66,0,0,1,5.72-1.61,5.22,5.22,0,0,1,3.8,4q.79,3.09-1.83,6h-.35V66h7.86V37.66a33.13,33.13,0,0,1,.79-5c0-.09.05-.17.07-.26a18.42,18.42,0,0,0,.62-2,9.14,9.14,0,0,1,3.33-4.58q2.79-1.83,7,.32a5.66,5.66,0,0,1,5.72-1.61,5.22,5.22,0,0,1,3.8,4c.53,2.06-.09,4-1.83,6h-.35V66h7.86V34.45Q446.93,28.45,445.49,23.71Z"/></g></g></svg>