<svg xmlns="http://www.w3.org/2000/svg" viewBox="0 0 435.7 78.89"><g id="Capa_2" data-name="Capa 2"><g id="Capa_1-2" data-name="Capa 1"><path d="M48.61,12.71A17.61,17.61,0,0,0,38.22,2.15q-7.44-2.89-18-.63H0V62.07H20.18q10.61,2.26,18-.63A17.62,17.62,0,0,0,48.61,50.89q2.94-7.66.5-19.09Q51.56,20.36,48.61,12.71Zm-7,33.55a15.52,15.52,0,0,1-8.45,8.79,18.83,18.83,0,0,1-13,.54v-.33H7.57V8.33H20.18V8a18.83,18.83,0,0,1,13,.54,15.52,15.52,0,0,1,8.45,8.79q2.52,6.23.25,14.47Q44.15,40,41.63,46.26Z"/><path d="M90.83,16.62q-5-1.4-11.44,1.05-6.65-2.45-11.78-1a9.46,9.46,0,0,0-6.81,5.93Q59.12,27.09,61.9,33h7.23c-1.68-2-2.15-4-1.39-6a6.29,6.29,0,0,1,4.63-4,8.86,8.86,0,0,1,7,1.17A7.82,7.82,0,0,1,86,22.88a6.05,6.05,0,0,1,4.42,3.91c.7,2,.23,4-1.39,5.93h-.34v1.65a5.15,5.15,0,0,1-1.13,2.89A5.7,5.7,0,0,1,83.13,39a25.13,25.13,0,0,1-8.37-1.77v-.33Q69,34.32,64.54,35.54a7.86,7.86,0,0,0-5.84,5.3q-1.35,4.08,1.43,9.2-2.77,5.22-1.43,9.42a8,8,0,0,0,5.8,5.47q4.45,1.26,10-1.43,5.71,2.43,9.38.8c2.3-1,3.9-3.18,4.83-6.41v4.18h7.57V32.72q2.68-5.8,1.09-10.26A9.06,9.06,0,0,0,90.83,16.62Zm-3.33,36a7.63,7.63,0,0,1-4.75,4.79q-3.27,1.1-8.24-.84a5.7,5.7,0,0,1-5.38,1.69A4.47,4.47,0,0,1,65.55,55q-.7-2.64,1.81-4.92-2.52-2.17-1.76-4.79A4.55,4.55,0,0,1,69.25,42a6,6,0,0,1,5.51,1.6v.33q5.64,2.28,9.34,1.81a5.73,5.73,0,0,0,4.62-2.94v3.65A18.8,18.8,0,0,1,87.5,52.65Z"/><rect x="109.07" y="19.18" width="7.57" height="42.89"/><rect x="107.81" y="2.87" width="10.09" height="9.33"/><rect x="129.59" y="1.52" width="7.57" height="60.55"/><polygon points="176.52 19.18 164.37 51.6 152.55 19.18 144.81 19.18 160.45 62.06 154.15 78.89 161.88 78.89 168.19 62.07 168.19 62.07 168.19 62.06 184.25 19.18 176.52 19.18"/><path d="M237.87,33.48a10.5,10.5,0,0,0-6.29-5.84,6.45,6.45,0,0,0,3.51-3.25c.81-1.9.49-4.23-1-7q2.77-6.15,1-10.77a9.72,9.72,0,0,0-7-6.1q-5.26-1.47-12.16,1H193.25V62.07h25.32q7.06,2.43,12.4.8a10.39,10.39,0,0,0,7.15-6.6q1.8-5-1-11.69C239,40.32,239.18,36.62,237.87,33.48ZM200.82,8.33H216V8a9,9,0,0,1,7.32-1.14A6.92,6.92,0,0,1,228.2,11q1.22,3.12-1.31,6.4A6.58,6.58,0,0,1,228,23a6,6,0,0,1-3.11,3.5,29.73,29.73,0,0,0-7.67,1.13l-.45-.05h-16ZM231.1,51.85a7.46,7.46,0,0,1-5,4.71,9.06,9.06,0,0,1-7.56-1v-.33H200.82V34.4h16v-.33a12.5,12.5,0,0,1,8.49-.68,8.16,8.16,0,0,1,5.51,4.42c1,2.16.69,4.41-.88,6.77C231.54,47.1,231.94,49.53,231.1,51.85Z"/><rect x="250.35" y="1.52" width="7.57" height="60.55"/><path d="M311.83,25.7a12.3,12.3,0,0,0-7.61-8.33q-5.69-2.15-13.42.3-7.74-2.45-13.41-.3a12.3,12.3,0,0,0-7.61,8.33q-1.93,6.18.59,14.93-2.52,8.74-.59,14.92a12.3,12.3,0,0,0,7.61,8.33q5.67,2.15,13.41-.3,7.74,2.44,13.42.3a12.3,12.3,0,0,0,7.61-8.33q1.94-6.18-.59-14.92Q313.76,31.88,311.83,25.7Zm-6.94,25.35a9.71,9.71,0,0,1-5.51,6.44,10.17,10.17,0,0,1-8.58-.38,10.17,10.17,0,0,1-8.58.38,9.7,9.7,0,0,1-5.5-6.44q-1.47-4.71.88-10.42-2.36-5.73-.88-10.43a9.7,9.7,0,0,1,5.5-6.44,10.2,10.2,0,0,1,8.58.38,10.21,10.21,0,0,1,8.58-.38,9.71,9.71,0,0,1,5.51,6.44q1.47,4.71-.88,10.43Q306.37,46.35,304.89,51.05Z"/><path d="M363,25.7a12.28,12.28,0,0,0-7.61-8.33c-3.78-1.43-8.26-1.33-13.41.3q-7.74-2.45-13.42-.3A12.3,12.3,0,0,0,321,25.7q-1.94,6.18.59,14.93-2.52,8.74-.59,14.92a12.3,12.3,0,0,0,7.61,8.33q5.68,2.15,13.42-.3c5.15,1.63,9.63,1.73,13.41.3A12.28,12.28,0,0,0,363,55.55q1.93-6.18-.59-14.92Q365,31.88,363,25.7ZM356.1,51.05a9.7,9.7,0,0,1-5.5,6.44,10.17,10.17,0,0,1-8.58-.38,10.17,10.17,0,0,1-8.58.38,9.71,9.71,0,0,1-5.51-6.44q-1.47-4.71.88-10.42-2.35-5.73-.88-10.43a9.71,9.71,0,0,1,5.51-6.44,10.21,10.21,0,0,1,8.58.38,10.2,10.2,0,0,1,8.58-.38,9.7,9.7,0,0,1,5.5,6.44q1.47,4.71-.88,10.43Q357.58,46.35,356.1,51.05Z"/><path d="M435.24,22.29a8.42,8.42,0,0,0-5.89-5.84q-4.5-1.39-10.13,1.3-5.22-2.61-8.29-.33a8.33,8.33,0,0,0-2.44,3.09,8.34,8.34,0,0,0-5.12-4.06q-4.5-1.39-10.14,1.3Q388,15.14,385,17.42A9.35,9.35,0,0,0,381.88,22V19.18h-7.57V62.07h7.57V35.48a30.27,30.27,0,0,1,.76-4.78q1.17-4.71,3.86-6.43t6.73.29a5.55,5.55,0,0,1,5.51-1.51,5,5,0,0,1,3.66,3.74q.75,2.91-1.77,5.59h-.33V62.07h7.57V35.48a30.3,30.3,0,0,1,.75-4.78c0-.08.05-.15.07-.23a16.74,16.74,0,0,0,.6-1.91,8.64,8.64,0,0,1,3.2-4.29c1.79-1.15,4-1.05,6.73.29a5.55,5.55,0,0,1,5.51-1.51,5,5,0,0,1,3.65,3.74q.76,2.91-1.76,5.59h-.34V62.07h7.57V32.38Q436.63,26.75,435.24,22.29Z"/></g></g></svg>